<?xml version="1.0" encoding="UTF-8"?>
<!DOCTYPE svg PUBLIC "-//W3C//DTD SVG 1.1//EN" "http://www.w3.org/Graphics/SVG/1.1/DTD/svg11.dtd">
<svg xmlns="http://www.w3.org/2000/svg" version="1.1" width="446px" height="643px" style="shape-rendering:geometricPrecision; text-rendering:geometricPrecision; image-rendering:optimizeQuality; fill-rule:evenodd; clip-rule:evenodd" xmlns:xlink="http://www.w3.org/1999/xlink">
<g><path style="opacity:1" fill="#000000" d="M 222.5,-0.5 C 222.833,-0.5 223.167,-0.5 223.5,-0.5C 238.264,26.2943 247.097,54.961 250,85.5C 253.256,117.214 256.923,148.881 261,180.5C 262.882,189.648 266.049,198.314 270.5,206.5C 276.463,201.872 282.13,196.872 287.5,191.5C 291.98,196.155 295.48,201.488 298,207.5C 299.536,231.819 300.703,256.152 301.5,280.5C 300.691,278.708 300.191,276.708 300,274.5C 299.5,275.667 298.667,276.5 297.5,277C 297.936,279.366 299.269,281.533 301.5,283.5C 301.371,308.08 311.371,327.247 331.5,341C 368.5,366.667 405.5,392.333 442.5,418C 443.996,420.714 444.996,423.547 445.5,426.5C 445.5,443.5 445.5,460.5 445.5,477.5C 418.543,483.656 391.543,489.656 364.5,495.5C 364.53,494.503 364.03,493.836 363,493.5C 361.5,494 360,494.5 358.5,495C 359.737,495.232 360.737,495.732 361.5,496.5C 340.323,500.402 319.323,505.069 298.5,510.5C 302.431,519.793 306.264,529.126 310,538.5C 328.333,551.5 346.667,564.5 365,577.5C 365.499,582.489 365.666,587.489 365.5,592.5C 364.71,591.391 364.21,590.058 364,588.5C 362.691,590.686 362.524,592.853 363.5,595C 362.833,595.333 362.167,595.667 361.5,596C 362.46,597.419 363.293,598.919 364,600.5C 364.186,597.964 364.686,595.631 365.5,593.5C 365.831,601.528 365.498,609.528 364.5,617.5C 353.24,620.815 341.907,623.815 330.5,626.5C 330.083,625.876 329.416,625.543 328.5,625.5C 326.5,626 324.5,626.5 322.5,627C 321.748,627.671 321.414,628.504 321.5,629.5C 305.012,633.67 288.678,638.003 272.5,642.5C 271.833,642.5 271.167,642.5 270.5,642.5C 269.15,633.767 267.483,625.1 265.5,616.5C 266.376,616.631 267.043,616.298 267.5,615.5C 267.185,613.517 266.185,612.184 264.5,611.5C 260.733,592.834 256.9,574.167 253,555.5C 252.333,554.167 251.667,554.167 251,555.5C 249.772,560.281 248.272,564.947 246.5,569.5C 245.074,570.802 243.741,572.302 242.5,574C 243.094,574.464 243.761,574.631 244.5,574.5C 244.335,576.827 243.669,578.993 242.5,581C 239.274,582.199 235.941,582.699 232.5,582.5C 231.036,581.84 229.369,581.507 227.5,581.5C 225.36,581.556 223.694,582.223 222.5,583.5C 216.115,583.061 209.781,582.228 203.5,581C 199.743,572.064 196.576,562.897 194,553.5C 186.718,582.965 180.218,612.632 174.5,642.5C 173.833,642.5 173.167,642.5 172.5,642.5C 151.351,636.545 130.018,630.878 108.5,625.5C 108.063,623.926 107.063,622.759 105.5,622C 103.302,621.627 101.135,621.127 99,620.5C 97.9701,620.836 97.4701,621.503 97.5,622.5C 91.2115,621.101 85.2115,619.101 79.5,616.5C 80.329,609.011 80.829,601.344 81,593.5C 81.6543,594.696 82.1543,594.696 82.5,593.5C 80.1945,591.019 80.1945,588.686 82.5,586.5C 82.1543,585.304 81.6543,585.304 81,586.5C 80.502,583.518 80.3354,580.518 80.5,577.5C 97.2201,565.45 114.22,553.783 131.5,542.5C 130.537,543.363 130.537,544.03 131.5,544.5C 132.386,543.675 132.719,542.675 132.5,541.5C 133.315,540.163 134.482,539.163 136,538.5C 139.249,529.084 143.083,519.917 147.5,511C 136.098,507.4 124.431,504.567 112.5,502.5C 114.887,500.342 114.22,499.508 110.5,500C 109.944,500.383 109.611,500.883 109.5,501.5C 72.7458,493.883 36.0791,485.883 -0.5,477.5C -0.5,466.5 -0.5,455.5 -0.5,444.5C 0.179784,436.098 0.84645,427.598 1.5,419C 34.8767,395.32 68.5433,372.153 102.5,349.5C 102.56,350.043 102.893,350.376 103.5,350.5C 104.386,349.675 104.719,348.675 104.5,347.5C 112.741,341.94 120.741,335.94 128.5,329.5C 135.783,319.935 140.616,309.268 143,297.5C 144.414,267.14 146.081,236.806 148,206.5C 150.16,200.682 153.493,195.682 158,191.5C 163.468,195.967 168.635,200.8 173.5,206C 174.332,206.688 174.998,206.521 175.5,205.5C 179.172,198.49 182.005,191.157 184,183.5C 186.25,167.166 188.417,150.832 190.5,134.5C 191.222,134.918 191.722,135.584 192,136.5C 192.602,133.779 192.435,131.113 191.5,128.5C 192.834,104.658 195.668,80.9916 200,57.5C 204.465,36.9296 211.965,17.5962 222.5,-0.5 Z"/></g>
<g><path style="opacity:1" fill="#010600" d="M 191.5,128.5 C 192.435,131.113 192.602,133.779 192,136.5C 191.722,135.584 191.222,134.918 190.5,134.5C 190.205,132.265 190.539,130.265 191.5,128.5 Z"/></g>
<g><path style="opacity:1" fill="#000500" d="M 301.5,280.5 C 301.5,281.5 301.5,282.5 301.5,283.5C 299.269,281.533 297.936,279.366 297.5,277C 298.667,276.5 299.5,275.667 300,274.5C 300.191,276.708 300.691,278.708 301.5,280.5 Z"/></g>
<g><path style="opacity:1" fill="#000600" d="M 104.5,347.5 C 104.719,348.675 104.386,349.675 103.5,350.5C 102.893,350.376 102.56,350.043 102.5,349.5C 102.833,348.5 103.5,347.833 104.5,347.5 Z"/></g>
<g><path style="opacity:1" fill="#020705" d="M 364.5,495.5 C 363.391,495.557 362.391,495.89 361.5,496.5C 360.737,495.732 359.737,495.232 358.5,495C 360,494.5 361.5,494 363,493.5C 364.03,493.836 364.53,494.503 364.5,495.5 Z"/></g>
<g><path style="opacity:1" fill="#010701" d="M 112.5,502.5 C 111.391,502.443 110.391,502.11 109.5,501.5C 109.611,500.883 109.944,500.383 110.5,500C 114.22,499.508 114.887,500.342 112.5,502.5 Z"/></g>
<g><path style="opacity:1" fill="#000600" d="M 132.5,541.5 C 132.719,542.675 132.386,543.675 131.5,544.5C 130.537,544.03 130.537,543.363 131.5,542.5C 131.5,541.833 131.833,541.5 132.5,541.5 Z"/></g>
<g><path style="opacity:1" fill="#080808" d="M 246.5,569.5 C 245.976,571.306 245.309,572.972 244.5,574.5C 243.761,574.631 243.094,574.464 242.5,574C 243.741,572.302 245.074,570.802 246.5,569.5 Z"/></g>
<g><path style="opacity:1" fill="#050606" d="M 232.5,582.5 C 229.193,583.051 225.86,583.384 222.5,583.5C 223.694,582.223 225.36,581.556 227.5,581.5C 229.369,581.507 231.036,581.84 232.5,582.5 Z"/></g>
<g><path style="opacity:1" fill="#000600" d="M 365.5,592.5 C 365.5,592.833 365.5,593.167 365.5,593.5C 364.686,595.631 364.186,597.964 364,600.5C 363.293,598.919 362.46,597.419 361.5,596C 362.167,595.667 362.833,595.333 363.5,595C 362.524,592.853 362.691,590.686 364,588.5C 364.21,590.058 364.71,591.391 365.5,592.5 Z"/></g>
<g><path style="opacity:1" fill="#060706" d="M 80.5,577.5 C 80.3354,580.518 80.502,583.518 81,586.5C 81.6543,585.304 82.1543,585.304 82.5,586.5C 80.1945,588.686 80.1945,591.019 82.5,593.5C 82.1543,594.696 81.6543,594.696 81,593.5C 80.829,601.344 80.329,609.011 79.5,616.5C 79.1712,603.323 79.5045,590.323 80.5,577.5 Z"/></g>
<g><path style="opacity:1" fill="#070708" d="M 264.5,611.5 C 266.185,612.184 267.185,613.517 267.5,615.5C 267.043,616.298 266.376,616.631 265.5,616.5C 265.371,614.784 265.038,613.117 264.5,611.5 Z"/></g>
<g><path style="opacity:1" fill="#040604" d="M 108.5,625.5 C 104.981,624.036 101.314,623.036 97.5,622.5C 97.4701,621.503 97.9701,620.836 99,620.5C 101.135,621.127 103.302,621.627 105.5,622C 107.063,622.759 108.063,623.926 108.5,625.5 Z"/></g>
<g><path style="opacity:1" fill="#040605" d="M 330.5,626.5 C 327.548,627.654 324.548,628.654 321.5,629.5C 321.414,628.504 321.748,627.671 322.5,627C 324.5,626.5 326.5,626 328.5,625.5C 329.416,625.543 330.083,625.876 330.5,626.5 Z"/></g>
</svg>
